<mxfile host="app.diagrams.net" modified="2023-02-21T03:19:35.549Z" agent="5.0 (Windows NT 10.0; Win64; x64) AppleWebKit/537.36 (KHTML, like Gecko) Chrome/110.0.0.0 Safari/537.36" etag="XUmvrBk7kvUIfdw4kTBh" version="20.8.21" type="github">
  <diagram name="페이지-1" id="7o3w4uXIKX3_cVfn29h3">
    <mxGraphModel dx="1434" dy="764" grid="1" gridSize="10" guides="1" tooltips="1" connect="1" arrows="1" fold="1" page="1" pageScale="1" pageWidth="1169" pageHeight="827" math="0" shadow="0">
      <root>
        <mxCell id="0" />
        <mxCell id="1" parent="0" />
        <mxCell id="wY5E-rM3v8plbLJVekBO-1" value="" style="rounded=0;whiteSpace=wrap;html=1;strokeWidth=2;" parent="1" vertex="1">
          <mxGeometry x="225" y="380" width="720" height="419" as="geometry" />
        </mxCell>
        <mxCell id="wY5E-rM3v8plbLJVekBO-2" value="" style="rounded=1;whiteSpace=wrap;html=1;strokeWidth=2;fillWeight=4;hachureGap=8;hachureAngle=45;fillColor=#1ba1e2;sketch=1;" parent="1" vertex="1">
          <mxGeometry x="230" y="480" width="710" height="319" as="geometry" />
        </mxCell>
        <mxCell id="wY5E-rM3v8plbLJVekBO-4" value="" style="verticalLabelPosition=bottom;verticalAlign=top;html=1;shape=mxgraph.basic.patternFillRect;fillStyle=diag;step=5;fillStrokeWidth=0.2;fillStrokeColor=#dddddd;strokeWidth=2;fillColor=#f5f5f5;fontColor=#333333;strokeColor=#666666;" parent="1" vertex="1">
          <mxGeometry x="220" y="360" width="730" height="30" as="geometry" />
        </mxCell>
        <mxCell id="wY5E-rM3v8plbLJVekBO-11" value="" style="shape=mxgraph.signs.animals.fish_hatchery;html=1;pointerEvents=1;fillColor=#f5f5f5;strokeColor=#666666;verticalLabelPosition=bottom;verticalAlign=top;align=center;sketch=0;strokeWidth=2;fontColor=#333333;" parent="1" vertex="1">
          <mxGeometry x="300" y="520" width="97" height="85" as="geometry" />
        </mxCell>
        <mxCell id="wY5E-rM3v8plbLJVekBO-12" value="" style="shape=mxgraph.signs.animals.seal;html=1;pointerEvents=1;verticalLabelPosition=bottom;verticalAlign=top;align=center;sketch=0;strokeWidth=2;fillColor=#f5f5f5;fontColor=#333333;strokeColor=#666666;" parent="1" vertex="1">
          <mxGeometry x="410" y="700" width="100" height="92" as="geometry" />
        </mxCell>
        <mxCell id="wY5E-rM3v8plbLJVekBO-13" value="" style="shape=mxgraph.signs.animals.duck;html=1;pointerEvents=1;fillColor=#fff2cc;strokeColor=#d6b656;verticalLabelPosition=bottom;verticalAlign=top;align=center;sketch=0;strokeWidth=2;" parent="1" vertex="1">
          <mxGeometry x="630" y="417" width="105" height="73" as="geometry" />
        </mxCell>
        <mxCell id="wY5E-rM3v8plbLJVekBO-19" value="" style="shape=image;verticalLabelPosition=bottom;labelBackgroundColor=default;verticalAlign=top;aspect=fixed;imageAspect=0;image=data:image/png,iVBORw0KGgoAAAANSUhEUgAAAHQAAABhCAYAAAAHgYUPAAAACXBIWXMAAA7DAAAOwwHHb6hkAAAIqUlEQVR4Xu2dWY8UVRTHu6q6eqZ7ethxMGoyDDrGBEw0cQEFE5b45JsioJL4IYwL4IvLd1AQHlzefCNGRUE0EeM30DDQSpBFH3gCzNDdnl9TdyyKXqpvLdPdc25yqenuutv/f8+5t845tygUNCkCioAioAgoAoqAIqAIKAKKgCKgCCgCioAioAgoAorACCLgjOCYbIf0QFBwRq7NIK+X61yoQvM9X52xbSjLckuCUMdxpz1vbKZY9Gd8v/Tg+Hjp4Wq1vKnZrG+o1WqJ8J2amrpel3TzxvzxZqPRmJ+vn6jXG4168+aniSq2LDxqhN4rOMyWShM7p9at3V2SNHf292lLbBIXm5ioXPn3xvxXjaZzEqFvNOc/S1xpjwqGndBtInU7SqXKbHWysvHqlUsbswYsaf2e6x8TQT7VLNQXRYLb9Z8Zf0tyXXKDtWbTuuWZz7ygI2vluq9SLv8cWufMujZ016JX/EEk6pWkkySN8l8bMkPAQu5xyWwk0kprpKItMuhDlXJlJEjsNBE9x/tEfnsmLeBs6vktILUlpRFiv5HPj9hUKmVWSt7jOqw7d9Q7dBJo0/+SXzotE/hVS+wSFzOkdgL7hLTwaIxWIPEJyd/ZgDAcZZxDIRzW9RqrX/RPyz3PxsAu1VseCqS0m/Qgwd9KfinS8qR8flwypI+49HnvdkCdZ9yuYxdpRVPdlyprPSp7o1enQr9DHsRyjarqESbV6yBpzoE+sNuaJ6kf99GxESauk7S5bSXMKRT7IRTcDuZJ6hJQndZLA8RF06oxf/zHOIIwVhq7KKqXXTCGk1xTzzUhzgBG9J59/zPhrHQdH4K6aqtyuXKpUHCOyH1P58piqLHHltba2J/Ejo+PXSyVxn7qRWSlUrnsFFyInFosIsPt7u7VYf29/USoVMpIZKJnUDeDGbAhgzpHuspqtfq3DHD/9es3ZI1s5mVGjYXpHpW+/tQweDmudzQWujFuStPbskra+0dymnXGGMJo3OK6zjEH6JrNZkNyMCpzdYI/HLmjJn+/l/WoMd3pDjd7i9c5wTlzc6CSmT2RCGhqarmXdL8dZ930XLcm97EVf0ryXlEd38cpp/cUkMotvUhI5Xch5Z0YgNOhwwGR0XZbDmvJSm5Eyv1i8c9AAFLhKk4lPPR2s3QYIiEtTuK+vcEglqC99zaWRc/7QwQld6MC/rxOoBsi45DY7R4kl4EtCXJ9v3hBxtrO5psUx57leTy5a0crEQbn5XtUcBZptVTKMy6qe2QIDqSR5SZk580Cvu51RjdBSCSqMs9ErBEE47YbKpJLvn/BdVpO60UlMUzW2UBKkNK8iew2aVqxSIGa7unJyEvSIdBznFNiY0WdZu41sbHqAByhJ7/mKZIJ2rpHyj4veb3rujOOpMnJyReuXbvGOFJLEtN9ESuPRM3P1Rt1fMNIISnXIxM2hKYGwgBUBNlgwATlas610LXpNv0zpjj2C2YfgcbC5KlJEVAEFAFFQBFQBBQBRUARUAQUAUVAEVhyCCQ1LODyImLNNuGC42GeM6XTnuvtcjzXETPZhgLRM/Kwz79igOGB/lyj3jjrNp3z9cKtWr1ZGKjouA4A4JUyGDOGy7ZA5VUO43g/Nl28Jth/OTaIUT+p52RODN242DYnGDDHC2zjdBgPjoLNwtoBsdme9G4b3juOCw+LmCBrMlOPSMY7NTBGeoMhhHKSjGs799lqIhvSPMA75hc5E7JNyAwb4XFD2RKL+Y7+xwlyXgN5Jb/I+c2kE7JVHtej1InXKHPjfdyJH/aPQi4uNiGx+2y1AUSAxBEcTlHfLIZxbLT9JFSjqacBYZHCtyXQdU7Z9Lldmclq9aq88GObLCr3yxITnphoL9uJ2c+Yu97L6eu8znvSzkIKTmUx0/meDCA2Z0LajeGwTMpM4p1WrFj2QQTRKH5MzEVNcQLGUlFRk9XKmUqp8JysV/uZ/UIq67GJKEwCQm5jWLZ84v1QR1mHDaFckywfSca/UJbd7mIGWgMA6w+qCvVo/TaRPMNLPa9w1CsWDnEqLZiYjIMw10VPrJkLKiOIL0pFGhlozGxULhscqzjWmGGpcfvT932y6+XFGmgJMuu47e470YR4MyDT7HRfDmozISHs3rJeX03btGWbWHfD/TyXp7RGJi3aLtfj9wY03mJiwIy+5SQKrInaSzs0k8GjIZIkdrlGwqkvOjGI9E+733dJsGi2mrTNjtdmU9caf1JL0YvBzPrSAk0eLXZKB7YHcR3b5TMWo26JzQ+JgfMAz5rzi0Xb4SL0g7eUgQVgftijPsDeITfvkH6/ngKGNMdYyEyaK0nGk5TQJG13K4sFJnwYGc6zjNvBWvOF5WDYEGK+JDMpSUxMMzm5EoNkUi34g2daMhph4E2ClthoMUVAEVAEFAFFQBFQBBQBRUARUAQUAUVAERgmBAbVUtQJQ2yuSa0q+B5nJWPVmZYcNTfyGcsU1h2sOub6+TAROyx9xeeJEZ3gtDip9b9KSD6YUjiMMdwP0kHnODgM9D1vBaQS+4MxO5qwrW5JicCWR6Q8Pv6XXF+TzP+xYrwkkIsHSVMKCBA3tOC7hNi0g7hCxEFgOAIiHKZiYpgGJlovBWwXrYo8Q15Yu03CM3OHI1w+qwpOYRoQe5N1JERLvUroKHHAW5HU4BV3rUh+VbkpsBiqwqylfcfuRNSpTXnIRM0S+vmk5IEI7EoX3nxrMzG0YQnNRVqjk0HWblT/R/kOf7Ra401mhry5IJDLRJqb18nlRa4JHx0thHMcDc+V5hwKz6LdVB2/8VhDnFCaBKNu2WUP5M522CxFBGgRcQ5J/QaH8Xy6S7KJ+4kTlMZcxVJENoFcub5Iql9hGTZC+x1fnPsJSAMHMoFeXM0uNsnZ1zht6z2KgCKgCCgCioAioAgoAoqAIqAIKAKKgCKgCCgCioAioAgoAoqAIqAIKAKKgCKgCCgCMRH4D7xgyTTiIqxHAAAAAElFTkSuQmCC;" parent="1" vertex="1">
          <mxGeometry x="722" y="660" width="116" height="97" as="geometry" />
        </mxCell>
        <mxCell id="wY5E-rM3v8plbLJVekBO-20" value="" style="shape=mxgraph.signs.animals.fish_hatchery;html=1;pointerEvents=1;fillColor=#f5f5f5;strokeColor=#666666;verticalLabelPosition=bottom;verticalAlign=top;align=center;sketch=0;strokeWidth=2;fontColor=#333333;" parent="1" vertex="1">
          <mxGeometry x="790" y="503" width="97" height="85" as="geometry" />
        </mxCell>
        <mxCell id="wY5E-rM3v8plbLJVekBO-21" value="" style="shape=image;verticalLabelPosition=bottom;labelBackgroundColor=default;verticalAlign=top;aspect=fixed;imageAspect=0;image=data:image/png,iVBORw0KGgoAAAANSUhEUgAAAHQAAABhCAYAAAAHgYUPAAAACXBIWXMAAA7DAAAOwwHHb6hkAAAIqUlEQVR4Xu2dWY8UVRTHu6q6eqZ7ethxMGoyDDrGBEw0cQEFE5b45JsioJL4IYwL4IvLd1AQHlzefCNGRUE0EeM30DDQSpBFH3gCzNDdnl9TdyyKXqpvLdPdc25yqenuutv/f8+5t845tygUNCkCioAioAgoAoqAIqAIKAKKgCKgCCgCioAioAgoAorACCLgjOCYbIf0QFBwRq7NIK+X61yoQvM9X52xbSjLckuCUMdxpz1vbKZY9Gd8v/Tg+Hjp4Wq1vKnZrG+o1WqJ8J2amrpel3TzxvzxZqPRmJ+vn6jXG4168+aniSq2LDxqhN4rOMyWShM7p9at3V2SNHf292lLbBIXm5ioXPn3xvxXjaZzEqFvNOc/S1xpjwqGndBtInU7SqXKbHWysvHqlUsbswYsaf2e6x8TQT7VLNQXRYLb9Z8Zf0tyXXKDtWbTuuWZz7ygI2vluq9SLv8cWufMujZ016JX/EEk6pWkkySN8l8bMkPAQu5xyWwk0kprpKItMuhDlXJlJEjsNBE9x/tEfnsmLeBs6vktILUlpRFiv5HPj9hUKmVWSt7jOqw7d9Q7dBJo0/+SXzotE/hVS+wSFzOkdgL7hLTwaIxWIPEJyd/ZgDAcZZxDIRzW9RqrX/RPyz3PxsAu1VseCqS0m/Qgwd9KfinS8qR8flwypI+49HnvdkCdZ9yuYxdpRVPdlyprPSp7o1enQr9DHsRyjarqESbV6yBpzoE+sNuaJ6kf99GxESauk7S5bSXMKRT7IRTcDuZJ6hJQndZLA8RF06oxf/zHOIIwVhq7KKqXXTCGk1xTzzUhzgBG9J59/zPhrHQdH4K6aqtyuXKpUHCOyH1P58piqLHHltba2J/Ejo+PXSyVxn7qRWSlUrnsFFyInFosIsPt7u7VYf29/USoVMpIZKJnUDeDGbAhgzpHuspqtfq3DHD/9es3ZI1s5mVGjYXpHpW+/tQweDmudzQWujFuStPbskra+0dymnXGGMJo3OK6zjEH6JrNZkNyMCpzdYI/HLmjJn+/l/WoMd3pDjd7i9c5wTlzc6CSmT2RCGhqarmXdL8dZ930XLcm97EVf0ryXlEd38cpp/cUkMotvUhI5Xch5Z0YgNOhwwGR0XZbDmvJSm5Eyv1i8c9AAFLhKk4lPPR2s3QYIiEtTuK+vcEglqC99zaWRc/7QwQld6MC/rxOoBsi45DY7R4kl4EtCXJ9v3hBxtrO5psUx57leTy5a0crEQbn5XtUcBZptVTKMy6qe2QIDqSR5SZk580Cvu51RjdBSCSqMs9ErBEE47YbKpJLvn/BdVpO60UlMUzW2UBKkNK8iew2aVqxSIGa7unJyEvSIdBznFNiY0WdZu41sbHqAByhJ7/mKZIJ2rpHyj4veb3rujOOpMnJyReuXbvGOFJLEtN9ESuPRM3P1Rt1fMNIISnXIxM2hKYGwgBUBNlgwATlas610LXpNv0zpjj2C2YfgcbC5KlJEVAEFAFFQBFQBBQBRUARUAQUAUVAEVhyCCQ1LODyImLNNuGC42GeM6XTnuvtcjzXETPZhgLRM/Kwz79igOGB/lyj3jjrNp3z9cKtWr1ZGKjouA4A4JUyGDOGy7ZA5VUO43g/Nl28Jth/OTaIUT+p52RODN242DYnGDDHC2zjdBgPjoLNwtoBsdme9G4b3juOCw+LmCBrMlOPSMY7NTBGeoMhhHKSjGs799lqIhvSPMA75hc5E7JNyAwb4XFD2RKL+Y7+xwlyXgN5Jb/I+c2kE7JVHtej1InXKHPjfdyJH/aPQi4uNiGx+2y1AUSAxBEcTlHfLIZxbLT9JFSjqacBYZHCtyXQdU7Z9Lldmclq9aq88GObLCr3yxITnphoL9uJ2c+Yu97L6eu8znvSzkIKTmUx0/meDCA2Z0LajeGwTMpM4p1WrFj2QQTRKH5MzEVNcQLGUlFRk9XKmUqp8JysV/uZ/UIq67GJKEwCQm5jWLZ84v1QR1mHDaFckywfSca/UJbd7mIGWgMA6w+qCvVo/TaRPMNLPa9w1CsWDnEqLZiYjIMw10VPrJkLKiOIL0pFGhlozGxULhscqzjWmGGpcfvT932y6+XFGmgJMuu47e470YR4MyDT7HRfDmozISHs3rJeX03btGWbWHfD/TyXp7RGJi3aLtfj9wY03mJiwIy+5SQKrInaSzs0k8GjIZIkdrlGwqkvOjGI9E+733dJsGi2mrTNjtdmU9caf1JL0YvBzPrSAk0eLXZKB7YHcR3b5TMWo26JzQ+JgfMAz5rzi0Xb4SL0g7eUgQVgftijPsDeITfvkH6/ngKGNMdYyEyaK0nGk5TQJG13K4sFJnwYGc6zjNvBWvOF5WDYEGK+JDMpSUxMMzm5EoNkUi34g2daMhph4E2ClthoMUVAEVAEFAFFQBFQBBQBRUARUAQUAUVAERgmBAbVUtQJQ2yuSa0q+B5nJWPVmZYcNTfyGcsU1h2sOub6+TAROyx9xeeJEZ3gtDip9b9KSD6YUjiMMdwP0kHnODgM9D1vBaQS+4MxO5qwrW5JicCWR6Q8Pv6XXF+TzP+xYrwkkIsHSVMKCBA3tOC7hNi0g7hCxEFgOAIiHKZiYpgGJlovBWwXrYo8Q15Yu03CM3OHI1w+qwpOYRoQe5N1JERLvUroKHHAW5HU4BV3rUh+VbkpsBiqwqylfcfuRNSpTXnIRM0S+vmk5IEI7EoX3nxrMzG0YQnNRVqjk0HWblT/R/kOf7Ra401mhry5IJDLRJqb18nlRa4JHx0thHMcDc+V5hwKz6LdVB2/8VhDnFCaBKNu2WUP5M522CxFBGgRcQ5J/QaH8Xy6S7KJ+4kTlMZcxVJENoFcub5Iql9hGTZC+x1fnPsJSAMHMoFeXM0uNsnZ1zht6z2KgCKgCCgCioAioAgoAoqAIqAIKAKKgCKgCCgCioAioAgoAoqAIqAIKAKKgCKgCCgCMRH4D7xgyTTiIqxHAAAAAElFTkSuQmCC;" parent="1" vertex="1">
          <mxGeometry x="552" y="591" width="116" height="97" as="geometry" />
        </mxCell>
        <mxCell id="wY5E-rM3v8plbLJVekBO-25" value="" style="edgeStyle=orthogonalEdgeStyle;html=1;endArrow=block;elbow=vertical;startArrow=block;startFill=1;endFill=1;strokeColor=#545B64;rounded=0;" parent="1" target="wY5E-rM3v8plbLJVekBO-30" edge="1">
          <mxGeometry width="100" relative="1" as="geometry">
            <mxPoint x="648.5" y="54.5" as="sourcePoint" />
            <mxPoint x="1028.5" y="54.5" as="targetPoint" />
          </mxGeometry>
        </mxCell>
        <mxCell id="wY5E-rM3v8plbLJVekBO-26" value="AWS Cloud" style="sketch=0;outlineConnect=0;fontColor=#232F3E;gradientColor=none;strokeColor=#232F3E;fillColor=#ffffff;dashed=0;verticalLabelPosition=bottom;verticalAlign=top;align=center;html=1;fontSize=12;fontStyle=0;aspect=fixed;shape=mxgraph.aws4.resourceIcon;resIcon=mxgraph.aws4.aws_cloud;strokeWidth=2;" parent="1" vertex="1">
          <mxGeometry x="585" y="22.5" width="60" height="60" as="geometry" />
        </mxCell>
        <mxCell id="wY5E-rM3v8plbLJVekBO-27" value="User" style="sketch=0;outlineConnect=0;fontColor=#232F3E;gradientColor=none;strokeColor=#232F3E;fillColor=#ffffff;dashed=0;verticalLabelPosition=bottom;verticalAlign=top;align=center;html=1;fontSize=12;fontStyle=0;aspect=fixed;shape=mxgraph.aws4.resourceIcon;resIcon=mxgraph.aws4.user;strokeWidth=2;" parent="1" vertex="1">
          <mxGeometry x="285" y="110" width="60" height="60" as="geometry" />
        </mxCell>
        <mxCell id="wY5E-rM3v8plbLJVekBO-28" value="Mobile client" style="sketch=0;outlineConnect=0;fontColor=#232F3E;gradientColor=none;strokeColor=#232F3E;fillColor=#ffffff;dashed=0;verticalLabelPosition=bottom;verticalAlign=top;align=center;html=1;fontSize=12;fontStyle=0;aspect=fixed;shape=mxgraph.aws4.resourceIcon;resIcon=mxgraph.aws4.mobile_client;strokeWidth=2;" parent="1" vertex="1">
          <mxGeometry x="345" y="110" width="60" height="60" as="geometry" />
        </mxCell>
        <mxCell id="wY5E-rM3v8plbLJVekBO-30" value="" style="fontColor=#0066CC;verticalAlign=top;verticalLabelPosition=bottom;labelPosition=center;align=center;html=1;outlineConnect=0;fillColor=#CCCCCC;strokeColor=#6881B3;gradientColor=none;gradientDirection=north;strokeWidth=2;shape=mxgraph.networks.wireless_hub;" parent="1" vertex="1">
          <mxGeometry x="1060" y="12.5" width="100" height="85" as="geometry" />
        </mxCell>
        <mxCell id="wY5E-rM3v8plbLJVekBO-31" value="&lt;font color=&quot;#000000&quot;&gt;WebPage&lt;/font&gt;" style="fontColor=#0066CC;verticalAlign=top;verticalLabelPosition=bottom;labelPosition=center;align=center;html=1;outlineConnect=0;fillColor=#CCCCCC;strokeColor=#000000;gradientColor=none;gradientDirection=north;strokeWidth=2;shape=mxgraph.networks.pc;" parent="1" vertex="1">
          <mxGeometry x="20" y="22.5" width="100" height="70" as="geometry" />
        </mxCell>
        <mxCell id="wY5E-rM3v8plbLJVekBO-46" value="" style="endArrow=none;html=1;rounded=0;strokeWidth=3;" parent="1" edge="1">
          <mxGeometry width="50" height="50" relative="1" as="geometry">
            <mxPoint x="220" y="359" as="sourcePoint" />
            <mxPoint x="220" y="240" as="targetPoint" />
          </mxGeometry>
        </mxCell>
        <mxCell id="wY5E-rM3v8plbLJVekBO-47" value="" style="endArrow=none;html=1;rounded=0;strokeWidth=3;" parent="1" edge="1">
          <mxGeometry width="50" height="50" relative="1" as="geometry">
            <mxPoint x="949" y="359" as="sourcePoint" />
            <mxPoint x="949" y="240" as="targetPoint" />
          </mxGeometry>
        </mxCell>
        <mxCell id="wY5E-rM3v8plbLJVekBO-48" value="" style="endArrow=none;html=1;rounded=0;strokeWidth=3;" parent="1" edge="1">
          <mxGeometry width="50" height="50" relative="1" as="geometry">
            <mxPoint x="949" y="240" as="sourcePoint" />
            <mxPoint x="219" y="239" as="targetPoint" />
          </mxGeometry>
        </mxCell>
        <mxCell id="wY5E-rM3v8plbLJVekBO-50" value="Arduino Uno R3" style="swimlane;whiteSpace=wrap;html=1;strokeWidth=2;" parent="1" vertex="1">
          <mxGeometry x="240" y="255" width="150" height="105" as="geometry" />
        </mxCell>
        <mxCell id="wY5E-rM3v8plbLJVekBO-52" value="TMP" style="labelPosition=center;verticalLabelPosition=middle;align=center;html=1;shape=mxgraph.basic.button;dx=10;whiteSpace=wrap;strokeWidth=2;" parent="wY5E-rM3v8plbLJVekBO-50" vertex="1">
          <mxGeometry y="25" width="75" height="40" as="geometry" />
        </mxCell>
        <mxCell id="wY5E-rM3v8plbLJVekBO-55" value="Wifi" style="labelPosition=center;verticalLabelPosition=middle;align=center;html=1;shape=mxgraph.basic.button;dx=10;whiteSpace=wrap;strokeWidth=2;" parent="wY5E-rM3v8plbLJVekBO-50" vertex="1">
          <mxGeometry x="75" y="25" width="75" height="40" as="geometry" />
        </mxCell>
        <mxCell id="wY5E-rM3v8plbLJVekBO-63" value="PH" style="labelPosition=center;verticalLabelPosition=middle;align=center;html=1;shape=mxgraph.basic.button;dx=10;whiteSpace=wrap;strokeWidth=2;" parent="wY5E-rM3v8plbLJVekBO-50" vertex="1">
          <mxGeometry y="65" width="75" height="40" as="geometry" />
        </mxCell>
        <mxCell id="wY5E-rM3v8plbLJVekBO-80" value="Time" style="labelPosition=center;verticalLabelPosition=middle;align=center;html=1;shape=mxgraph.basic.button;dx=10;whiteSpace=wrap;strokeWidth=2;" parent="wY5E-rM3v8plbLJVekBO-50" vertex="1">
          <mxGeometry x="75" y="65" width="75" height="40" as="geometry" />
        </mxCell>
        <mxCell id="wY5E-rM3v8plbLJVekBO-59" value="Arduino Uno R3" style="swimlane;whiteSpace=wrap;html=1;strokeWidth=2;" parent="1" vertex="1">
          <mxGeometry x="780" y="255" width="150" height="105" as="geometry" />
        </mxCell>
        <mxCell id="wY5E-rM3v8plbLJVekBO-60" value="TDS" style="labelPosition=center;verticalLabelPosition=middle;align=center;html=1;shape=mxgraph.basic.button;dx=10;whiteSpace=wrap;strokeWidth=2;" parent="wY5E-rM3v8plbLJVekBO-59" vertex="1">
          <mxGeometry y="25" width="75" height="40" as="geometry" />
        </mxCell>
        <mxCell id="wY5E-rM3v8plbLJVekBO-61" value="Wifi" style="labelPosition=center;verticalLabelPosition=middle;align=center;html=1;shape=mxgraph.basic.button;dx=10;whiteSpace=wrap;strokeWidth=2;" parent="wY5E-rM3v8plbLJVekBO-59" vertex="1">
          <mxGeometry x="75" y="25" width="75" height="40" as="geometry" />
        </mxCell>
        <mxCell id="wY5E-rM3v8plbLJVekBO-45" value="Motion" style="labelPosition=center;verticalLabelPosition=middle;align=center;html=1;shape=mxgraph.basic.button;dx=10;whiteSpace=wrap;strokeWidth=2;" parent="wY5E-rM3v8plbLJVekBO-59" vertex="1">
          <mxGeometry y="65" width="75" height="40" as="geometry" />
        </mxCell>
        <mxCell id="wY5E-rM3v8plbLJVekBO-133" value="MoterDrive" style="labelPosition=center;verticalLabelPosition=middle;align=center;html=1;shape=mxgraph.basic.button;dx=10;whiteSpace=wrap;strokeWidth=2;" parent="wY5E-rM3v8plbLJVekBO-59" vertex="1">
          <mxGeometry x="75" y="65" width="75" height="40" as="geometry" />
        </mxCell>
        <mxCell id="wY5E-rM3v8plbLJVekBO-62" value="1. Temperature &lt;br&gt;&lt;div style=&quot;text-align: left;&quot;&gt;&lt;span style=&quot;background-color: initial;&quot;&gt;2. PH&lt;/span&gt;&lt;/div&gt;" style="rounded=0;whiteSpace=wrap;html=1;strokeWidth=2;fillColor=#647687;fontColor=#ffffff;strokeColor=#314354;" parent="1" vertex="1">
          <mxGeometry x="230" y="370" width="120" height="60" as="geometry" />
        </mxCell>
        <mxCell id="wY5E-rM3v8plbLJVekBO-64" value="" style="shape=link;html=1;rounded=0;strokeWidth=3;" parent="1" edge="1">
          <mxGeometry width="100" relative="1" as="geometry">
            <mxPoint x="177" y="267" as="sourcePoint" />
            <mxPoint x="257" y="267" as="targetPoint" />
          </mxGeometry>
        </mxCell>
        <mxCell id="wY5E-rM3v8plbLJVekBO-65" value="" style="shape=link;html=1;rounded=0;strokeWidth=3;" parent="1" edge="1">
          <mxGeometry width="100" relative="1" as="geometry">
            <mxPoint x="910" y="267" as="sourcePoint" />
            <mxPoint x="990" y="267" as="targetPoint" />
          </mxGeometry>
        </mxCell>
        <mxCell id="wY5E-rM3v8plbLJVekBO-66" value="" style="fontColor=#0066CC;verticalAlign=top;verticalLabelPosition=bottom;labelPosition=center;align=center;html=1;outlineConnect=0;fillColor=#000000;strokeColor=#000000;gradientColor=none;gradientDirection=north;strokeWidth=2;shape=mxgraph.networks.security_camera;" parent="1" vertex="1">
          <mxGeometry x="823.5" y="360" width="30" height="30" as="geometry" />
        </mxCell>
        <mxCell id="wY5E-rM3v8plbLJVekBO-70" value="" style="shape=image;verticalLabelPosition=bottom;labelBackgroundColor=default;verticalAlign=top;aspect=fixed;imageAspect=0;image=data:image/png,iVBORw0KGgoAAAANSUhEUgAAAC0AAAArCAYAAADsQwGHAAAACXBIWXMAAA7DAAAOwwHHb6hkAAADnElEQVR4Xu2YS2gTURSGY1GMKFgkYrWttlA1IGjciNqgdVdQpItuhZaCO0kkxqBFUhBEjQstrm0XVrcuBHFjCy2I4iMVim/ShY+KVuurVjQZvxNmZAzJ3DEJyRTmwmUm93HOd/8598ydeDxucRVwFXAVcKwC4XD4bEtLy2xXV9eQYyHNYIBe9Pl8Gm3ZmkgkDjsaPBAI3GloaMgYwHJFcYF3ZmlqanoOcNoMbFL7iOOoBTgfrNFWV1fnLLUlJKyAjb7BwcEDjlA7GAzetAMci8WuTE5OrqwqNCktTIZ4qwKura2V7HEplUo1VxU4FAoJ8Gc7wKztkaZpCzo7O+FOra0KOMAR1PthE/iaQLJJNdmIfr+/8puRl8YZFJ5VAQskIXEcZdfJvYyX69jY2I6KKo3TJ+TgbypgMsn30dHRVoAbzcC07awG8JwK2FATYB/w2RCSNn7XVxr4KQ7/eS3ngwduhpS2Oh6P9xG7P2UM4BptqyoKjNPbKnV1NWdQcw2b9IJxUOrp6bkMsM8KeGBgoJvYj5VlURjbhlrjdhTu6Oi4IfFLajsvOVkWAUiEthVWMDyZNBnlt4wfHh5uKwkctfpQ650dhYE7ipoC3G8AAyKhZFmA3KKfRbKL5Pdu1RzLfoy9VikMYBrgqBjiNT4uAAa0QLS3t9+ycsLcY2ZR7EDXWBmcmpqqx+l1ID7lG0f7HPm6PxqNJnjEX1F6s9fr9fT29kZZQFLmJJPJPQrlLBmKVp3V+4F6iYpvDFUA/kIonJMURt+0vgk1ycviiDlyzT5yFn63kHOUjv+v0gUXwgbcT8Z4ANhpYxApLEbbPQkbnB2SHAxw9qCk5+WA2SBjP0qfhIwsjrqY6qUupC6lLsf+1RzotqLURaUNKCkOM3weSW72YPwUThbJPdcaxmwC6r4OnBGAXGdmtWVRhWpZoMW5vgnl8WZQfS8AzSxkGviTKC4nu2xWAfwFwMsKqSMvFTOU6r6klMfjPyjAutqPBUr/KkkD/0HaOczLzrcsAiHZREKkUM1RuuSU90o3mEbtVgCWCCwQ71nUPhWwnX45AeZA77Izr+AYDHbraqeJ7QkZyNvxISGSzcvlKHqO/xtCCBMs2S6PVNTOsImelWwsjwGgQzlKb1f5USb2SCRygjPFEApsVBkrsl+Orebyq0g7FZ9mDo+tKu9KpVUGytHPPpnQP93EnPwrNT/KyMhIIyG4fn7QupSuAq4C81OBP7PMXdA3BWWlAAAAAElFTkSuQmCC;" parent="1" vertex="1">
          <mxGeometry x="778.5" y="353.5" width="45" height="43" as="geometry" />
        </mxCell>
        <mxCell id="wY5E-rM3v8plbLJVekBO-73" value="Moter" style="rounded=1;whiteSpace=wrap;html=1;strokeColor=#000000;strokeWidth=2;fillColor=#FFFFFF;" parent="1" vertex="1">
          <mxGeometry x="540" y="310" width="90" height="30" as="geometry" />
        </mxCell>
        <mxCell id="wY5E-rM3v8plbLJVekBO-141" style="edgeStyle=orthogonalEdgeStyle;rounded=0;orthogonalLoop=1;jettySize=auto;html=1;entryX=0;entryY=0.5;entryDx=0;entryDy=0;strokeColor=#B09500;strokeWidth=3;fillColor=#e3c800;" parent="1" source="wY5E-rM3v8plbLJVekBO-74" target="wY5E-rM3v8plbLJVekBO-120" edge="1">
          <mxGeometry relative="1" as="geometry" />
        </mxCell>
        <mxCell id="wY5E-rM3v8plbLJVekBO-74" value="DC 12V 1.5A" style="rounded=1;whiteSpace=wrap;html=1;strokeColor=#000000;strokeWidth=2;fillColor=#FFFFFF;" parent="1" vertex="1">
          <mxGeometry x="960" y="360" width="90" height="30" as="geometry" />
        </mxCell>
        <mxCell id="wY5E-rM3v8plbLJVekBO-75" value="H&lt;br&gt;i&lt;br&gt;g&lt;br&gt;h" style="labelPosition=center;verticalLabelPosition=middle;align=center;html=1;shape=mxgraph.basic.button;dx=10;whiteSpace=wrap;strokeWidth=2;direction=south;" parent="1" vertex="1">
          <mxGeometry x="870" y="380" width="34" height="115.75" as="geometry" />
        </mxCell>
        <mxCell id="wY5E-rM3v8plbLJVekBO-78" value="" style="endArrow=none;dashed=1;html=1;rounded=0;strokeWidth=3;entryX=0.013;entryY=1.05;entryDx=0;entryDy=0;exitX=0.009;exitY=0.5;exitDx=0;exitDy=0;exitPerimeter=0;entryPerimeter=0;" parent="1" source="wY5E-rM3v8plbLJVekBO-75" target="wY5E-rM3v8plbLJVekBO-61" edge="1">
          <mxGeometry width="50" height="50" relative="1" as="geometry">
            <mxPoint x="894" y="380" as="sourcePoint" />
            <mxPoint x="944" y="330" as="targetPoint" />
          </mxGeometry>
        </mxCell>
        <mxCell id="wY5E-rM3v8plbLJVekBO-79" value="Feed Box" style="shape=ext;double=1;whiteSpace=wrap;html=1;aspect=fixed;strokeColor=#000000;strokeWidth=2;fillColor=#FFFFFF;" parent="1" vertex="1">
          <mxGeometry x="545" y="335" width="80" height="80" as="geometry" />
        </mxCell>
        <mxCell id="wY5E-rM3v8plbLJVekBO-81" value="" style="endArrow=none;dashed=1;html=1;rounded=0;strokeWidth=3;" parent="1" edge="1">
          <mxGeometry width="50" height="50" relative="1" as="geometry">
            <mxPoint x="542" y="345" as="sourcePoint" />
            <mxPoint x="392" y="345" as="targetPoint" />
          </mxGeometry>
        </mxCell>
        <mxCell id="wY5E-rM3v8plbLJVekBO-137" style="edgeStyle=orthogonalEdgeStyle;rounded=0;orthogonalLoop=1;jettySize=auto;html=1;entryX=0.5;entryY=0;entryDx=0;entryDy=0;strokeColor=#B09500;strokeWidth=3;fillColor=#e3c800;" parent="1" source="wY5E-rM3v8plbLJVekBO-82" target="wY5E-rM3v8plbLJVekBO-116" edge="1">
          <mxGeometry relative="1" as="geometry" />
        </mxCell>
        <mxCell id="wY5E-rM3v8plbLJVekBO-82" value="DC 12V 1.5A" style="rounded=1;whiteSpace=wrap;html=1;strokeColor=#000000;strokeWidth=2;fillColor=#FFFFFF;" parent="1" vertex="1">
          <mxGeometry x="90" y="255" width="90" height="30" as="geometry" />
        </mxCell>
        <mxCell id="wY5E-rM3v8plbLJVekBO-84" value="Breadboard (LED Light)" style="verticalLabelPosition=bottom;verticalAlign=top;html=1;shape=mxgraph.basic.patternFillRect;fillStyle=diagGrid;step=5;fillStrokeWidth=0.2;fillStrokeColor=#dddddd;strokeColor=#000000;strokeWidth=2;fillColor=#FFFFFF;" parent="1" vertex="1">
          <mxGeometry x="410" y="255" width="110" height="55" as="geometry" />
        </mxCell>
        <mxCell id="wY5E-rM3v8plbLJVekBO-87" value="" style="endArrow=none;dashed=1;html=1;rounded=0;strokeWidth=3;" parent="1" edge="1">
          <mxGeometry width="50" height="50" relative="1" as="geometry">
            <mxPoint x="410" y="263" as="sourcePoint" />
            <mxPoint x="385" y="263" as="targetPoint" />
          </mxGeometry>
        </mxCell>
        <mxCell id="wY5E-rM3v8plbLJVekBO-88" value="" style="endArrow=none;dashed=1;html=1;rounded=0;strokeWidth=3;" parent="1" edge="1">
          <mxGeometry width="50" height="50" relative="1" as="geometry">
            <mxPoint x="778.5" y="263" as="sourcePoint" />
            <mxPoint x="753.5" y="263" as="targetPoint" />
          </mxGeometry>
        </mxCell>
        <mxCell id="wY5E-rM3v8plbLJVekBO-91" value="" style="shape=image;html=1;verticalAlign=top;verticalLabelPosition=bottom;labelBackgroundColor=#ffffff;imageAspect=0;aspect=fixed;image=https://cdn2.iconfinder.com/data/icons/electronic-13/480/6-electronic-led-icon-2-128.png;strokeColor=#000000;strokeWidth=2;fillColor=#FFFFFF;imageBorder=none;" parent="1" vertex="1">
          <mxGeometry x="410" y="255" width="28" height="28" as="geometry" />
        </mxCell>
        <mxCell id="wY5E-rM3v8plbLJVekBO-93" value="" style="shape=image;html=1;verticalAlign=top;verticalLabelPosition=bottom;labelBackgroundColor=#ffffff;imageAspect=0;aspect=fixed;image=https://cdn2.iconfinder.com/data/icons/electronic-13/480/6-electronic-led-icon-2-128.png;strokeColor=#000000;strokeWidth=2;fillColor=#FFFFFF;imageBorder=none;" parent="1" vertex="1">
          <mxGeometry x="494" y="280" width="28" height="28" as="geometry" />
        </mxCell>
        <mxCell id="wY5E-rM3v8plbLJVekBO-94" value="" style="shape=image;html=1;verticalAlign=top;verticalLabelPosition=bottom;labelBackgroundColor=#ffffff;imageAspect=0;aspect=fixed;image=https://cdn2.iconfinder.com/data/icons/electronic-13/480/6-electronic-led-icon-2-128.png;strokeColor=#000000;strokeWidth=2;fillColor=#FFFFFF;imageBorder=none;" parent="1" vertex="1">
          <mxGeometry x="466" y="280" width="28" height="28" as="geometry" />
        </mxCell>
        <mxCell id="wY5E-rM3v8plbLJVekBO-95" value="" style="shape=image;html=1;verticalAlign=top;verticalLabelPosition=bottom;labelBackgroundColor=#ffffff;imageAspect=0;aspect=fixed;image=https://cdn2.iconfinder.com/data/icons/electronic-13/480/6-electronic-led-icon-2-128.png;strokeColor=#000000;strokeWidth=2;fillColor=#FFFFFF;imageBorder=none;" parent="1" vertex="1">
          <mxGeometry x="438" y="255" width="28" height="28" as="geometry" />
        </mxCell>
        <mxCell id="wY5E-rM3v8plbLJVekBO-96" value="" style="shape=image;html=1;verticalAlign=top;verticalLabelPosition=bottom;labelBackgroundColor=#ffffff;imageAspect=0;aspect=fixed;image=https://cdn2.iconfinder.com/data/icons/electronic-13/480/6-electronic-led-icon-2-128.png;strokeColor=#000000;strokeWidth=2;fillColor=#FFFFFF;imageBorder=none;" parent="1" vertex="1">
          <mxGeometry x="438" y="280" width="28" height="28" as="geometry" />
        </mxCell>
        <mxCell id="wY5E-rM3v8plbLJVekBO-97" value="" style="shape=image;html=1;verticalAlign=top;verticalLabelPosition=bottom;labelBackgroundColor=#ffffff;imageAspect=0;aspect=fixed;image=https://cdn2.iconfinder.com/data/icons/electronic-13/480/6-electronic-led-icon-2-128.png;strokeColor=#000000;strokeWidth=2;fillColor=#FFFFFF;imageBorder=none;" parent="1" vertex="1">
          <mxGeometry x="410" y="280" width="28" height="28" as="geometry" />
        </mxCell>
        <mxCell id="wY5E-rM3v8plbLJVekBO-98" value="" style="shape=image;html=1;verticalAlign=top;verticalLabelPosition=bottom;labelBackgroundColor=#ffffff;imageAspect=0;aspect=fixed;image=https://cdn2.iconfinder.com/data/icons/electronic-13/480/6-electronic-led-icon-2-128.png;strokeColor=#000000;strokeWidth=2;fillColor=#FFFFFF;imageBorder=none;" parent="1" vertex="1">
          <mxGeometry x="494" y="255" width="28" height="28" as="geometry" />
        </mxCell>
        <mxCell id="wY5E-rM3v8plbLJVekBO-99" value="" style="shape=image;html=1;verticalAlign=top;verticalLabelPosition=bottom;labelBackgroundColor=#ffffff;imageAspect=0;aspect=fixed;image=https://cdn2.iconfinder.com/data/icons/electronic-13/480/6-electronic-led-icon-2-128.png;strokeColor=#000000;strokeWidth=2;fillColor=#FFFFFF;imageBorder=none;" parent="1" vertex="1">
          <mxGeometry x="466" y="255" width="28" height="28" as="geometry" />
        </mxCell>
        <mxCell id="wY5E-rM3v8plbLJVekBO-101" value="Breadboard (LED Light)" style="verticalLabelPosition=bottom;verticalAlign=top;html=1;shape=mxgraph.basic.patternFillRect;fillStyle=diagGrid;step=5;fillStrokeWidth=0.2;fillStrokeColor=#dddddd;strokeColor=#000000;strokeWidth=2;fillColor=#FFFFFF;" parent="1" vertex="1">
          <mxGeometry x="640" y="255" width="110" height="55" as="geometry" />
        </mxCell>
        <mxCell id="wY5E-rM3v8plbLJVekBO-102" value="" style="shape=image;html=1;verticalAlign=top;verticalLabelPosition=bottom;labelBackgroundColor=#ffffff;imageAspect=0;aspect=fixed;image=https://cdn2.iconfinder.com/data/icons/electronic-13/480/6-electronic-led-icon-2-128.png;strokeColor=#000000;strokeWidth=2;fillColor=#FFFFFF;imageBorder=none;" parent="1" vertex="1">
          <mxGeometry x="722" y="280" width="28" height="28" as="geometry" />
        </mxCell>
        <mxCell id="wY5E-rM3v8plbLJVekBO-103" value="" style="shape=image;html=1;verticalAlign=top;verticalLabelPosition=bottom;labelBackgroundColor=#ffffff;imageAspect=0;aspect=fixed;image=https://cdn2.iconfinder.com/data/icons/electronic-13/480/6-electronic-led-icon-2-128.png;strokeColor=#000000;strokeWidth=2;fillColor=#FFFFFF;imageBorder=none;" parent="1" vertex="1">
          <mxGeometry x="698" y="280" width="28" height="28" as="geometry" />
        </mxCell>
        <mxCell id="wY5E-rM3v8plbLJVekBO-104" value="" style="shape=image;html=1;verticalAlign=top;verticalLabelPosition=bottom;labelBackgroundColor=#ffffff;imageAspect=0;aspect=fixed;image=https://cdn2.iconfinder.com/data/icons/electronic-13/480/6-electronic-led-icon-2-128.png;strokeColor=#000000;strokeWidth=2;fillColor=#FFFFFF;imageBorder=none;" parent="1" vertex="1">
          <mxGeometry x="668" y="280" width="28" height="28" as="geometry" />
        </mxCell>
        <mxCell id="wY5E-rM3v8plbLJVekBO-105" value="" style="shape=image;html=1;verticalAlign=top;verticalLabelPosition=bottom;labelBackgroundColor=#ffffff;imageAspect=0;aspect=fixed;image=https://cdn2.iconfinder.com/data/icons/electronic-13/480/6-electronic-led-icon-2-128.png;strokeColor=#000000;strokeWidth=2;fillColor=#FFFFFF;imageBorder=none;" parent="1" vertex="1">
          <mxGeometry x="640" y="280" width="28" height="28" as="geometry" />
        </mxCell>
        <mxCell id="wY5E-rM3v8plbLJVekBO-106" value="" style="shape=image;html=1;verticalAlign=top;verticalLabelPosition=bottom;labelBackgroundColor=#ffffff;imageAspect=0;aspect=fixed;image=https://cdn2.iconfinder.com/data/icons/electronic-13/480/6-electronic-led-icon-2-128.png;strokeColor=#000000;strokeWidth=2;fillColor=#FFFFFF;imageBorder=none;" parent="1" vertex="1">
          <mxGeometry x="722" y="255" width="28" height="28" as="geometry" />
        </mxCell>
        <mxCell id="wY5E-rM3v8plbLJVekBO-107" value="" style="shape=image;html=1;verticalAlign=top;verticalLabelPosition=bottom;labelBackgroundColor=#ffffff;imageAspect=0;aspect=fixed;image=https://cdn2.iconfinder.com/data/icons/electronic-13/480/6-electronic-led-icon-2-128.png;strokeColor=#000000;strokeWidth=2;fillColor=#FFFFFF;imageBorder=none;" parent="1" vertex="1">
          <mxGeometry x="698" y="255" width="28" height="28" as="geometry" />
        </mxCell>
        <mxCell id="wY5E-rM3v8plbLJVekBO-108" value="" style="shape=image;html=1;verticalAlign=top;verticalLabelPosition=bottom;labelBackgroundColor=#ffffff;imageAspect=0;aspect=fixed;image=https://cdn2.iconfinder.com/data/icons/electronic-13/480/6-electronic-led-icon-2-128.png;strokeColor=#000000;strokeWidth=2;fillColor=#FFFFFF;imageBorder=none;" parent="1" vertex="1">
          <mxGeometry x="668" y="255" width="28" height="28" as="geometry" />
        </mxCell>
        <mxCell id="wY5E-rM3v8plbLJVekBO-109" value="" style="shape=image;html=1;verticalAlign=top;verticalLabelPosition=bottom;labelBackgroundColor=#ffffff;imageAspect=0;aspect=fixed;image=https://cdn2.iconfinder.com/data/icons/electronic-13/480/6-electronic-led-icon-2-128.png;strokeColor=#000000;strokeWidth=2;fillColor=#FFFFFF;imageBorder=none;" parent="1" vertex="1">
          <mxGeometry x="640" y="255" width="28" height="28" as="geometry" />
        </mxCell>
        <mxCell id="wY5E-rM3v8plbLJVekBO-111" value="" style="shape=mxgraph.arrows2.wedgeArrowDashed2;html=1;bendable=0;startWidth=50;stepSize=15;rounded=0;strokeWidth=3;fillColor=#f0a30a;strokeColor=#BD7000;" parent="1" edge="1">
          <mxGeometry width="100" height="100" relative="1" as="geometry">
            <mxPoint x="370" y="454" as="sourcePoint" />
            <mxPoint x="459" y="311.5" as="targetPoint" />
          </mxGeometry>
        </mxCell>
        <mxCell id="wY5E-rM3v8plbLJVekBO-112" value="" style="shape=mxgraph.arrows2.wedgeArrowDashed2;html=1;bendable=0;startWidth=50;stepSize=15;rounded=0;strokeWidth=3;fillColor=#f0a30a;strokeColor=#BD7000;" parent="1" edge="1">
          <mxGeometry width="100" height="100" relative="1" as="geometry">
            <mxPoint x="540" y="450" as="sourcePoint" />
            <mxPoint x="459" y="310" as="targetPoint" />
          </mxGeometry>
        </mxCell>
        <mxCell id="wY5E-rM3v8plbLJVekBO-113" value="" style="shape=mxgraph.arrows2.wedgeArrowDashed2;html=1;bendable=0;startWidth=50;stepSize=15;rounded=0;strokeWidth=3;fillColor=#f0a30a;strokeColor=#BD7000;" parent="1" edge="1">
          <mxGeometry width="100" height="100" relative="1" as="geometry">
            <mxPoint x="609.5" y="452.5" as="sourcePoint" />
            <mxPoint x="698.5" y="310" as="targetPoint" />
          </mxGeometry>
        </mxCell>
        <mxCell id="wY5E-rM3v8plbLJVekBO-114" value="" style="shape=mxgraph.arrows2.wedgeArrowDashed2;html=1;bendable=0;startWidth=50;stepSize=15;rounded=0;strokeWidth=3;fillColor=#f0a30a;strokeColor=#BD7000;" parent="1" edge="1">
          <mxGeometry width="100" height="100" relative="1" as="geometry">
            <mxPoint x="778.5" y="450" as="sourcePoint" />
            <mxPoint x="697.5" y="310" as="targetPoint" />
          </mxGeometry>
        </mxCell>
        <mxCell id="wY5E-rM3v8plbLJVekBO-116" value="220v" style="rounded=1;whiteSpace=wrap;html=1;strokeColor=#000000;strokeWidth=2;fillColor=#FFFFFF;" parent="1" vertex="1">
          <mxGeometry x="10" y="373.5" width="50" height="30" as="geometry" />
        </mxCell>
        <mxCell id="wY5E-rM3v8plbLJVekBO-120" value="220v" style="rounded=1;whiteSpace=wrap;html=1;strokeColor=#000000;strokeWidth=2;fillColor=#FFFFFF;" parent="1" vertex="1">
          <mxGeometry x="1110" y="360" width="50" height="30" as="geometry" />
        </mxCell>
        <mxCell id="wY5E-rM3v8plbLJVekBO-125" value="Used Water" style="shape=cylinder3;whiteSpace=wrap;html=1;boundedLbl=1;backgroundOutline=1;size=15;strokeColor=#000000;strokeWidth=2;fillColor=#FFFFFF;" parent="1" vertex="1">
          <mxGeometry x="32" y="459" width="160" height="340" as="geometry" />
        </mxCell>
        <mxCell id="wY5E-rM3v8plbLJVekBO-126" value="Fresh Water" style="shape=cylinder3;whiteSpace=wrap;html=1;boundedLbl=1;backgroundOutline=1;size=15;strokeColor=#000000;strokeWidth=2;fillColor=#FFFFFF;" parent="1" vertex="1">
          <mxGeometry x="980" y="459" width="160" height="340" as="geometry" />
        </mxCell>
        <mxCell id="wY5E-rM3v8plbLJVekBO-132" style="edgeStyle=orthogonalEdgeStyle;rounded=0;orthogonalLoop=1;jettySize=auto;html=1;entryX=-0.067;entryY=0.183;entryDx=0;entryDy=0;entryPerimeter=0;strokeColor=#B09500;strokeWidth=3;fillColor=#e3c800;" parent="1" source="wY5E-rM3v8plbLJVekBO-127" target="wY5E-rM3v8plbLJVekBO-62" edge="1">
          <mxGeometry relative="1" as="geometry" />
        </mxCell>
        <mxCell id="wY5E-rM3v8plbLJVekBO-127" value="Water Pump" style="shape=mxgraph.pid.pumps.centrifugal_pump_2;html=1;pointerEvents=1;align=center;verticalLabelPosition=bottom;verticalAlign=top;dashed=0;strokeColor=#000000;strokeWidth=2;fillColor=#FFFFFF;" parent="1" vertex="1">
          <mxGeometry x="230" y="721.5" width="62" height="77" as="geometry" />
        </mxCell>
        <mxCell id="wY5E-rM3v8plbLJVekBO-131" style="edgeStyle=orthogonalEdgeStyle;rounded=0;orthogonalLoop=1;jettySize=auto;html=1;strokeColor=#B09500;strokeWidth=3;exitX=0.485;exitY=0.13;exitDx=0;exitDy=0;exitPerimeter=0;fillColor=#e3c800;" parent="1" source="wY5E-rM3v8plbLJVekBO-128" edge="1">
          <mxGeometry relative="1" as="geometry">
            <mxPoint x="1018" y="390" as="targetPoint" />
          </mxGeometry>
        </mxCell>
        <mxCell id="wY5E-rM3v8plbLJVekBO-128" value="Water Pump" style="shape=mxgraph.pid.pumps.centrifugal_pump_2;html=1;pointerEvents=1;align=center;verticalLabelPosition=bottom;verticalAlign=top;dashed=0;strokeColor=#000000;strokeWidth=2;fillColor=#FFFFFF;" parent="1" vertex="1">
          <mxGeometry x="988" y="716" width="62" height="77" as="geometry" />
        </mxCell>
        <mxCell id="wY5E-rM3v8plbLJVekBO-130" value="" style="shape=image;html=1;verticalAlign=top;verticalLabelPosition=bottom;labelBackgroundColor=#ffffff;imageAspect=0;aspect=fixed;image=https://cdn1.iconfinder.com/data/icons/ionicons-fill-vol-2/512/water-128.png;strokeColor=#000000;strokeWidth=2;fillColor=#FFFFFF;imageBackground=default;" parent="1" vertex="1">
          <mxGeometry x="120" y="432.5" width="50" height="50" as="geometry" />
        </mxCell>
        <mxCell id="wY5E-rM3v8plbLJVekBO-140" style="edgeStyle=orthogonalEdgeStyle;rounded=0;orthogonalLoop=1;jettySize=auto;html=1;strokeColor=#B09500;strokeWidth=3;fillColor=#e3c800;" parent="1" source="wY5E-rM3v8plbLJVekBO-134" target="wY5E-rM3v8plbLJVekBO-116" edge="1">
          <mxGeometry relative="1" as="geometry" />
        </mxCell>
        <mxCell id="wY5E-rM3v8plbLJVekBO-134" value="DC 12V 1.5A" style="rounded=1;whiteSpace=wrap;html=1;strokeColor=#000000;strokeWidth=2;fillColor=#FFFFFF;" parent="1" vertex="1">
          <mxGeometry x="130" y="373.5" width="90" height="30" as="geometry" />
        </mxCell>
        <mxCell id="wY5E-rM3v8plbLJVekBO-138" style="edgeStyle=orthogonalEdgeStyle;rounded=0;orthogonalLoop=1;jettySize=auto;html=1;exitX=1;exitY=0.5;exitDx=0;exitDy=0;entryX=0.5;entryY=0;entryDx=0;entryDy=0;strokeColor=#B09500;strokeWidth=3;fillColor=#e3c800;" parent="1" source="wY5E-rM3v8plbLJVekBO-135" target="wY5E-rM3v8plbLJVekBO-120" edge="1">
          <mxGeometry relative="1" as="geometry" />
        </mxCell>
        <mxCell id="wY5E-rM3v8plbLJVekBO-135" value="DC 12V 1.5A" style="rounded=1;whiteSpace=wrap;html=1;strokeColor=#000000;strokeWidth=2;fillColor=#FFFFFF;" parent="1" vertex="1">
          <mxGeometry x="990" y="250" width="90" height="30" as="geometry" />
        </mxCell>
        <mxCell id="wY5E-rM3v8plbLJVekBO-144" value="" style="shape=image;html=1;verticalAlign=top;verticalLabelPosition=bottom;labelBackgroundColor=#ffffff;imageAspect=0;aspect=fixed;image=https://cdn0.iconfinder.com/data/icons/construction-2-21/512/construction-industry-building-22-128.png;strokeColor=#000000;strokeWidth=2;fillColor=#000000;" parent="1" vertex="1">
          <mxGeometry x="164" y="403.5" width="128" height="128" as="geometry" />
        </mxCell>
        <mxCell id="wY5E-rM3v8plbLJVekBO-147" value="" style="shape=image;html=1;verticalAlign=top;verticalLabelPosition=bottom;labelBackgroundColor=#ffffff;imageAspect=0;aspect=fixed;image=https://cdn0.iconfinder.com/data/icons/construction-2-21/512/construction-industry-building-22-128.png;strokeColor=#000000;strokeWidth=2;fillColor=#000000;direction=east;" parent="1" vertex="1">
          <mxGeometry x="910" y="420" width="128" height="128" as="geometry" />
        </mxCell>
        <mxCell id="wY5E-rM3v8plbLJVekBO-148" value="" style="shape=image;html=1;verticalAlign=top;verticalLabelPosition=bottom;labelBackgroundColor=#ffffff;imageAspect=0;aspect=fixed;image=https://cdn1.iconfinder.com/data/icons/ionicons-fill-vol-2/512/water-128.png;strokeColor=#000000;strokeWidth=2;fillColor=#FFFFFF;" parent="1" vertex="1">
          <mxGeometry x="120" y="490" width="50" height="50" as="geometry" />
        </mxCell>
        <mxCell id="wY5E-rM3v8plbLJVekBO-150" value="" style="shape=image;html=1;verticalAlign=top;verticalLabelPosition=bottom;labelBackgroundColor=#ffffff;imageAspect=0;aspect=fixed;image=https://cdn1.iconfinder.com/data/icons/ionicons-fill-vol-2/512/water-128.png;strokeColor=#000000;strokeWidth=2;fillColor=#FFFFFF;" parent="1" vertex="1">
          <mxGeometry x="120" y="541" width="50" height="50" as="geometry" />
        </mxCell>
        <mxCell id="wY5E-rM3v8plbLJVekBO-152" value="" style="shape=image;html=1;verticalAlign=top;verticalLabelPosition=bottom;labelBackgroundColor=#ffffff;imageAspect=0;aspect=fixed;image=https://cdn1.iconfinder.com/data/icons/ionicons-outline-vol-2/512/water-outline-128.png;strokeColor=#000000;strokeWidth=2;fillColor=#000000;" parent="1" vertex="1">
          <mxGeometry x="980" y="551" width="40" height="40" as="geometry" />
        </mxCell>
        <mxCell id="wY5E-rM3v8plbLJVekBO-154" value="" style="shape=image;html=1;verticalAlign=top;verticalLabelPosition=bottom;labelBackgroundColor=#ffffff;imageAspect=0;aspect=fixed;image=https://cdn1.iconfinder.com/data/icons/ionicons-outline-vol-2/512/water-outline-128.png;strokeColor=#000000;strokeWidth=2;fillColor=#000000;" parent="1" vertex="1">
          <mxGeometry x="980" y="605" width="40" height="40" as="geometry" />
        </mxCell>
        <mxCell id="wY5E-rM3v8plbLJVekBO-155" value="" style="shape=image;html=1;verticalAlign=top;verticalLabelPosition=bottom;labelBackgroundColor=#ffffff;imageAspect=0;aspect=fixed;image=https://cdn1.iconfinder.com/data/icons/ionicons-outline-vol-2/512/water-outline-128.png;strokeColor=#000000;strokeWidth=2;fillColor=#000000;" parent="1" vertex="1">
          <mxGeometry x="980" y="660" width="40" height="40" as="geometry" />
        </mxCell>
        <mxCell id="wY5E-rM3v8plbLJVekBO-159" style="edgeStyle=orthogonalEdgeStyle;rounded=0;orthogonalLoop=1;jettySize=auto;html=1;entryX=0.5;entryY=1;entryDx=0;entryDy=0;entryPerimeter=0;strokeColor=#000000;strokeWidth=3;" parent="1" source="wY5E-rM3v8plbLJVekBO-61" target="wY5E-rM3v8plbLJVekBO-30" edge="1">
          <mxGeometry relative="1" as="geometry" />
        </mxCell>
        <mxCell id="wY5E-rM3v8plbLJVekBO-162" value="" style="edgeStyle=orthogonalEdgeStyle;html=1;endArrow=block;elbow=vertical;startArrow=block;startFill=1;endFill=1;strokeColor=#545B64;rounded=0;" parent="1" edge="1">
          <mxGeometry width="100" relative="1" as="geometry">
            <mxPoint x="129.88" y="54.5" as="sourcePoint" />
            <mxPoint x="567.13" y="55" as="targetPoint" />
            <Array as="points">
              <mxPoint x="439.38" y="55" />
              <mxPoint x="439.38" y="55" />
            </Array>
          </mxGeometry>
        </mxCell>
        <mxCell id="wY5E-rM3v8plbLJVekBO-163" value="" style="endArrow=classic;html=1;rounded=0;strokeColor=#6e6363;strokeWidth=1;fontColor=#000000;" parent="1" edge="1">
          <mxGeometry width="50" height="50" relative="1" as="geometry">
            <mxPoint x="375" y="52.5" as="sourcePoint" />
            <mxPoint x="374.5" y="110" as="targetPoint" />
          </mxGeometry>
        </mxCell>
        <mxCell id="wY5E-rM3v8plbLJVekBO-164" value="Aquarium Size&lt;br&gt;L 39 W 20 H 21" style="rounded=1;whiteSpace=wrap;html=1;strokeColor=#000000;strokeWidth=2;fontColor=#000000;fillColor=#ffffff;" parent="1" vertex="1">
          <mxGeometry x="520" y="780" width="110" height="40" as="geometry" />
        </mxCell>
        <mxCell id="ptzAiEhEx4k-v0Xu8rMv-2" value="Filter" style="verticalLabelPosition=bottom;verticalAlign=top;html=1;shape=mxgraph.basic.patternFillRect;fillStyle=grid;step=5;fillStrokeWidth=0.2;fillStrokeColor=#dddddd;direction=south;fillColor=#bac8d3;strokeColor=#23445d;" vertex="1" parent="1">
          <mxGeometry x="880" y="556" width="60" height="243" as="geometry" />
        </mxCell>
      </root>
    </mxGraphModel>
  </diagram>
</mxfile>
